<?xml version="1.0" standalone="no"?>
<!DOCTYPE svg PUBLIC "-//W3C//DTD SVG 20010904//EN"
 "http://www.w3.org/TR/2001/REC-SVG-20010904/DTD/svg10.dtd">
<svg version="1.0" xmlns="http://www.w3.org/2000/svg"
 width="768.000000pt" height="768.000000pt" viewBox="0 0 768.000000 768.000000"
 preserveAspectRatio="xMidYMid meet">
<metadata>
Created by potrace 1.14, written by Peter Selinger 2001-2017
</metadata>
<g transform="translate(0.000000,768.000000) scale(0.100000,-0.100000)"
fill="#000000" stroke="none">
<path d="M1319 7665 c-343 -54 -641 -205 -880 -448 -32 -32 -68 -72 -81 -89
-13 -17 -31 -39 -40 -49 -10 -11 -18 -22 -18 -26 -1 -5 -14 -24 -30 -43 -17
-19 -30 -40 -30 -47 0 -7 -4 -13 -10 -13 -5 0 -10 -7 -10 -15 0 -8 -5 -15 -11
-15 -5 0 -8 -4 -5 -9 4 -5 2 -11 -2 -13 -7 -2 -73 -128 -78 -148 0 -3 -4 -14
-9 -25 -29 -71 -36 -93 -55 -160 -22 -80 -27 -99 -36 -154 -3 -18 -9 -43 -12
-55 -10 -33 -13 -4965 -3 -5011 5 -22 18 -80 27 -130 22 -107 19 -96 27 -115
3 -8 18 -49 32 -90 47 -135 158 -337 224 -407 12 -12 21 -25 21 -28 0 -14 135
-153 204 -210 27 -22 54 -45 60 -50 56 -53 309 -192 371 -205 6 -1 15 -5 20
-10 9 -7 129 -45 176 -56 11 -2 29 -6 41 -9 13 -3 35 -8 51 -10 15 -3 42 -8
60 -12 17 -4 1137 -8 2487 -10 2109 -2 2468 0 2549 13 224 34 399 98 585 211
79 48 115 74 205 148 54 45 136 131 209 220 28 35 82 116 82 125 0 5 3 10 8
10 4 0 12 9 17 19 6 11 29 56 52 100 23 45 39 81 36 81 -3 0 2 11 11 25 9 14
14 25 11 25 -3 0 4 19 16 43 12 23 21 42 19 42 -1 0 3 20 10 45 7 25 14 53 16
62 2 10 6 28 9 40 3 13 8 39 11 58 2 19 8 46 12 60 10 38 13 4958 3 5005 -5
22 -18 81 -27 130 -22 107 -19 96 -27 115 -3 8 -18 49 -32 90 -47 135 -158
337 -224 407 -12 12 -21 25 -21 28 0 14 -135 153 -204 210 -27 22 -54 45 -60
50 -52 49 -320 198 -376 209 -3 1 -9 4 -15 8 -10 6 -139 46 -176 54 -11 2 -29
6 -41 9 -13 3 -35 8 -50 10 -16 3 -43 8 -60 12 -18 4 -1140 8 -2493 9 -2010 2
-2476 0 -2546 -11z"/>
</g>
</svg>
